<svg width="166" height="42" viewBox="0 0 166 42" fill="none" xmlns="http://www.w3.org/2000/svg">
<g clip-path="url(#clip0)">
<path d="M66.3972 14.5786L65.7649 15.9899L60.8606 26.9133H64.2613C64.5314 26.8834 64.791 26.7915 65.0201 26.6446C65.2491 26.4978 65.4415 26.3 65.5822 26.0665L66.7064 23.5544H75.8825V26.9133H79.9577V11.756H70.7534C69.841 11.7866 68.9539 12.0653 68.1867 12.5623C67.4195 13.0594 66.8011 13.7563 66.3972 14.5786ZM75.9387 15.1149V20.1673H68.224L70.107 15.9334C70.2461 15.6985 70.438 15.4995 70.6673 15.3525C70.8967 15.2054 71.1572 15.1144 71.4279 15.0867L75.9387 15.1149ZM88.1361 14.5786L82.5995 26.885H86.0283C86.2842 26.8554 86.5303 26.7691 86.749 26.6324C86.9677 26.4958 87.1535 26.3121 87.293 26.0947L91.86 15.9617C91.9977 15.7285 92.1874 15.5307 92.4141 15.3837C92.6409 15.2368 92.8986 15.1447 93.1669 15.1149H97.6917V26.885H101.697V11.756H92.5064C91.5922 11.7871 90.7035 12.0658 89.9341 12.5627C89.1648 13.0596 88.5435 13.7561 88.1361 14.5786ZM142.856 26.885H146.875V11.756H142.856V26.885ZM154.238 21.8326V16.7943C154.238 16.5677 154.283 16.3434 154.372 16.1349C154.46 15.9264 154.59 15.738 154.753 15.5811C154.915 15.4242 155.108 15.302 155.319 15.2219C155.53 15.1418 155.755 15.1054 155.981 15.1149H166.07C165.719 14.135 165.076 13.2873 164.229 12.6866C163.382 12.0858 162.372 11.7609 161.335 11.756H155.306C153.976 11.756 152.7 12.2868 151.759 13.2317C150.818 14.1766 150.29 15.4581 150.29 16.7943V21.8326C150.29 23.1702 150.818 24.4531 151.758 25.4002C152.698 26.3473 153.974 26.8813 155.306 26.885H161.602C162.581 26.8193 163.521 26.4678 164.305 25.8737C165.088 25.2796 165.683 24.4686 166.014 23.5403H155.981C155.753 23.5499 155.526 23.5127 155.313 23.4309C155.1 23.349 154.906 23.2243 154.742 23.0643C154.579 22.9044 154.45 22.7126 154.364 22.5008C154.277 22.289 154.234 22.0616 154.238 21.8326ZM121.777 15.1149H128.804V26.885H132.808V15.1149H138.176C138.62 15.1149 139.045 14.9379 139.359 14.623C139.672 14.308 139.849 13.8809 139.849 13.4354V11.756H121.777V15.1149ZM116.761 15.9617H109.06V11.7278H105.041V26.885H116.761C118.092 26.8813 119.368 26.3473 120.309 25.4002C121.249 24.4531 121.777 23.1702 121.777 21.8326V21C121.777 19.6637 121.249 18.3822 120.308 17.4373C119.367 16.4925 118.091 15.9617 116.761 15.9617ZM117.758 21.8326C117.76 22.0544 117.718 22.2743 117.635 22.4796C117.552 22.685 117.429 22.8718 117.274 23.0293C117.118 23.1867 116.933 23.3117 116.729 23.397C116.526 23.4823 116.307 23.5262 116.086 23.5262H109.06V19.2923H116.086C116.53 19.2923 116.955 19.4692 117.269 19.7842C117.582 20.0991 117.758 20.5263 117.758 20.9717V21.8326Z" fill="white"/>
<path d="M34.7795 11.7552L28.9759 1.6786C28.6821 1.16875 28.26 0.745438 27.7519 0.451153C27.2438 0.156867 26.6676 0.00195312 26.0811 0.00195312C25.4946 0.00195313 24.9183 0.156867 24.4103 0.451153C23.9022 0.745438 23.4801 1.16875 23.1863 1.6786L8.69838 26.8842L28.0063 10.0617C28.5555 9.70422 29.172 9.46391 29.8175 9.35563C30.463 9.24735 31.1238 9.27341 31.7588 9.4322C32.3939 9.59099 32.9897 9.87912 33.5093 10.2787C34.0289 10.6783 34.4613 11.1809 34.7795 11.7552ZM46.3726 31.9226C45.6672 30.5573 44.5149 29.4778 43.1097 28.866C41.7045 28.2542 40.1323 28.1474 38.6579 28.5637L0 41.9992L43.787 37.5254C45.4661 37.4204 47.1415 37.7824 48.629 38.5717C50.1165 39.361 51.3585 40.5469 52.2184 41.9992L46.3726 31.9226ZM43.4779 26.8842L37.6743 16.7935C36.269 14.2814 32.7419 13.2653 30.7184 14.7895L4.34216 34.4488L35.735 23.5254C37.2114 23.1083 38.7858 23.2145 40.1934 23.8262C41.601 24.4379 42.7559 25.5178 43.4638 26.8842H43.4779Z" fill="white"/>
<path d="M83.6675 41.9576H83.0071V40.4193H78.9319V41.9576H78.2714V39.7984H78.693C79.1461 38.9979 79.5001 38.1448 79.7469 37.258C80.0184 36.3682 80.1835 35.4491 80.2387 34.5201H82.9087V39.7984H83.6535L83.6675 41.9576ZM82.2623 39.7984V35.1411H80.857C80.7762 35.9373 80.6114 36.7227 80.3652 37.4839C80.1426 38.2919 79.8216 39.0692 79.4097 39.7984H82.2623Z" fill="white"/>
<path d="M90.6655 40.4193H87.3773V34.5201H90.6655V35.127H88.0658V37.0322H90.4969V37.6391H88.0658V39.8125H90.6655V40.4193Z" fill="white"/>
<path d="M94.558 34.5201H96.2162C96.8003 34.4741 97.3853 34.5965 97.9025 34.873C98.0782 34.9974 98.2185 35.1657 98.3097 35.3612C98.4009 35.5567 98.4397 35.7727 98.4224 35.9879C98.4335 36.2993 98.3338 36.6044 98.1414 36.8488C97.9158 37.0913 97.6123 37.2462 97.2842 37.2863C98.1835 37.4415 98.6894 37.9214 98.6894 38.6976C98.7038 38.9321 98.663 39.1668 98.5702 39.3826C98.4774 39.5984 98.3353 39.7892 98.1554 39.9395C97.7264 40.2583 97.1984 40.4133 96.6659 40.377H94.558V34.5201ZM95.2326 37.0464H96.3567C96.7182 37.079 97.0809 37.0002 97.3966 36.8205C97.508 36.7294 97.5957 36.6124 97.652 36.4796C97.7083 36.3468 97.7316 36.2023 97.7198 36.0584C97.7336 35.9175 97.708 35.7756 97.646 35.6484C97.5839 35.5213 97.4879 35.414 97.3685 35.3387C97.0213 35.1619 96.6325 35.0839 96.2443 35.1129H95.2326V37.0464ZM95.2326 37.6391V39.8407H96.4551C96.8367 39.8664 97.2163 39.7674 97.5371 39.5584C97.6606 39.4542 97.7571 39.3214 97.8183 39.1714C97.8795 39.0215 97.9036 38.8589 97.8885 38.6976C97.9027 38.5431 97.8765 38.3876 97.8124 38.2465C97.7483 38.1054 97.6486 37.9836 97.5231 37.8931C97.1817 37.6985 96.7904 37.61 96.3989 37.6391H95.2326Z" fill="white"/>
<path d="M105.828 40.4193H102.582V34.5201H105.87V35.127H103.228V37.0322H105.673V37.6391H103.228V39.8125H105.828V40.4193Z" fill="white"/>
<path d="M114.259 40.4193H113.571V35.127H111.66L111.547 36.1008C111.379 37.3851 111.238 38.3306 111.112 38.9234C111.046 39.3743 110.877 39.8041 110.62 40.1794C110.516 40.2917 110.39 40.3801 110.249 40.4385C110.109 40.497 109.957 40.5242 109.805 40.5181C109.622 40.5235 109.44 40.4899 109.271 40.4193V39.8407C109.411 39.9084 109.565 39.9422 109.72 39.9395C109.792 39.939 109.862 39.9236 109.928 39.8945C109.993 39.8654 110.052 39.823 110.1 39.7701C110.232 39.5881 110.327 39.382 110.381 39.1633C110.465 38.8669 110.564 38.3165 110.69 37.5121C110.817 36.7076 110.957 35.7056 111.098 34.5201H114.259V40.4193Z" fill="white"/>
<path d="M123.66 37.4697C123.705 38.2765 123.449 39.0712 122.944 39.6996C122.692 39.9715 122.385 40.1846 122.042 40.3236C121.7 40.4626 121.331 40.5242 120.962 40.504C120.59 40.5254 120.218 40.4659 119.872 40.3294C119.525 40.193 119.211 39.983 118.953 39.7137C118.451 39.0727 118.201 38.2693 118.25 37.4556C118.201 36.6725 118.441 35.8987 118.925 35.2822C119.461 34.7689 120.173 34.4825 120.913 34.4825C121.654 34.4825 122.366 34.7689 122.902 35.2822C123.415 35.8922 123.685 36.6714 123.66 37.4697ZM118.981 37.4697C118.924 38.112 119.088 38.7544 119.445 39.2903C119.637 39.4874 119.867 39.644 120.12 39.751C120.373 39.8579 120.645 39.913 120.92 39.913C121.195 39.913 121.467 39.8579 121.72 39.751C121.974 39.644 122.203 39.4874 122.396 39.2903C122.763 38.758 122.936 38.1153 122.887 37.4697C122.933 36.8289 122.76 36.1917 122.396 35.6633C122.223 35.4605 122.007 35.2994 121.764 35.1919C121.52 35.0844 121.256 35.0332 120.99 35.0423C120.725 35.0362 120.462 35.0887 120.219 35.196C119.976 35.3033 119.76 35.4628 119.585 35.6633C119.166 36.1711 118.937 36.8102 118.939 37.4697H118.981Z" fill="white"/>
<path d="M131.951 40.4193H131.263V35.127H128.255V40.4193H127.567V34.5201H131.951V40.4193Z" fill="white"/>
<path d="M138.781 40.4193L136.785 35.1976C136.785 35.6068 136.785 36.1008 136.785 36.6089V40.3629H136.153V34.5201H137.179L139.118 39.3891L140.987 34.5201H142.013V40.4193H141.324V36.6935C141.324 36.256 141.324 35.7762 141.324 35.2822L139.315 40.504L138.781 40.4193Z" fill="white"/>
<path d="M149.489 40.4193H146.214V34.5201H149.489V35.127H146.903V37.0322H149.334V37.6391H146.903V39.8125H149.489V40.4193Z" fill="white"/>
<path d="M157.85 40.4193H157.161V37.5968H154.07V40.4193H153.395V34.5201H154.07V37.0322H157.161V34.5201H157.85V40.4193Z" fill="white"/>
<path d="M164.061 40.4193H163.372V35.127H161.517V34.5201H165.916V35.127H164.061V40.4193Z" fill="white"/>
</g>
<defs>
<clipPath id="clip0">
<rect width="166" height="42" fill="white"/>
</clipPath>
</defs>
</svg>
