<svg width="290" height="129" viewBox="0 0 290 129" fill="none" xmlns="http://www.w3.org/2000/svg">
<g clip-path="url(#clip0)">
<path d="M12.6162 35.7747H26.2694L44.2431 55.4768H59.9702L40.7002 34.7378C43.6383 34.4785 46.2306 33.7873 48.4774 32.7503C51.5018 31.3677 53.8349 29.3802 55.4768 26.7878C57.0322 24.1955 57.8963 21.171 57.8963 17.7145C57.8963 14.9493 57.4642 12.4434 56.5137 10.2831C55.6496 8.12277 54.267 6.30811 52.5387 4.75268C50.8105 3.19726 48.6502 2.0739 46.1442 1.20977C43.6383 0.432062 40.7002 0 37.4166 0H12.6162H9.67819H0V55.4768H12.6162V35.7747ZM35.1698 9.50536C36.8117 9.50536 38.2807 9.85101 39.5769 10.1967C40.8731 10.5423 41.91 11.0608 42.7741 11.6657C43.5518 12.2706 44.2431 13.1347 44.6752 14.1716C45.1073 15.2086 45.2801 16.4184 45.2801 17.801C45.2801 19.0971 45.0209 20.3069 44.5888 21.2575C44.1567 22.2944 43.4654 23.1585 42.6877 23.8498C41.8236 24.5411 40.7867 25.0596 39.5769 25.4052C38.3671 25.7509 36.8981 25.9237 35.2563 25.9237H12.6162V9.50536H35.1698Z" fill="white"/>
<path d="M82.1782 0H69.562V55.4768H82.1782V0Z" fill="white"/>
<path d="M177.923 55.4768H219.574V45.7986H177.923V31.9726H214.389V22.3808H177.923V9.67819H218.969V0H177.923H173.603H165.566V55.4768H173.603H177.923Z" fill="white"/>
<path d="M290 55.4768L270.73 34.7378C273.668 34.4785 276.26 33.7873 278.507 32.7503C281.532 31.3677 283.865 29.3802 285.507 26.7878C287.148 24.1955 287.926 21.171 287.926 17.7145C287.926 14.9493 287.494 12.4434 286.543 10.2831C285.679 8.12277 284.297 6.3081 282.569 4.75268C280.84 3.19726 278.68 2.0739 276.174 1.20977C273.668 0.432062 270.73 0 267.446 0H242.646H239.708H230.03V55.4768H242.646V35.7747H256.299L274.273 55.4768H290ZM242.732 9.67819H265.286C266.928 9.67819 268.397 9.85101 269.693 10.1967C270.989 10.5423 272.026 11.0608 272.89 11.6657C273.668 12.2706 274.359 13.1347 274.791 14.1716C275.223 15.2086 275.396 16.4184 275.396 17.801C275.396 19.0971 275.137 20.3069 274.705 21.2575C274.273 22.2944 273.582 23.1585 272.804 23.8498C271.94 24.5411 270.903 25.0596 269.693 25.4052C268.483 25.7509 267.014 25.9237 265.372 25.9237H242.819V9.67819H242.732Z" fill="white"/>
<path d="M59.3653 83.388C57.6371 81.1412 55.3903 79.2402 52.798 77.6847C50.2056 76.1293 47.2676 74.9196 43.8975 74.1418C40.5274 73.3641 36.8981 72.9321 32.8367 72.9321H12.6162H8.64124H0V128.409H7.17223H12.5298H32.8367C36.8117 128.409 40.5274 127.977 43.8975 127.199C47.2676 126.421 50.2056 125.212 52.798 123.656C55.3903 122.101 57.5507 120.2 59.3653 117.953C61.0936 115.706 62.4762 113.114 63.3403 110.262C64.2044 107.411 64.6365 104.213 64.6365 100.757C64.6365 97.2139 64.2044 94.0167 63.3403 91.0787C62.3898 88.2271 61.0936 85.6347 59.3653 83.388ZM50.8105 106.892C50.292 108.707 49.6007 110.349 48.6502 111.731C47.6996 113.114 46.4899 114.324 44.9344 115.274C43.4654 116.225 41.7372 117.002 39.7497 117.521C37.7622 118.039 35.6019 118.299 33.2688 118.299H12.6162V82.9559H33.2688C35.6883 82.9559 37.8486 83.2151 39.7497 83.6472C41.7372 84.1657 43.4654 84.857 44.9344 85.8939C46.4035 86.9309 47.6996 88.1406 48.6502 89.6097C49.6007 91.0787 50.292 92.7205 50.8105 94.5352C51.329 96.4362 51.5882 98.5101 51.5882 100.757C51.5882 103.004 51.329 105.077 50.8105 106.892Z" fill="white"/>
<path d="M94.9672 72.9321L65.155 128.409H78.4625L84.9434 116.052H117.607L124.088 128.409H137.914L108.015 72.9321H94.9672ZM89.8689 106.546L101.275 84.6842L112.682 106.546H89.8689Z" fill="white"/>
<path d="M157.184 72.9321H144.654V128.409H147.592H157.184H193.737V118.299H157.184V72.9321Z" fill="white"/>
<path d="M215.167 104.818H251.633V95.2265H215.167V82.6103H256.213V72.9321H215.167H210.846H202.81V128.409H210.846H215.167H256.818V118.731H215.167V104.818Z" fill="white"/>
<path d="M133.939 0C137.569 3.71573 140.075 6.56734 140.075 9.24613C140.075 17.6281 125.816 23.8498 125.039 29.8987C124.434 34.3921 129.014 38.2807 136.1 44.0703L158.308 0H133.939V0Z" fill="white"/>
<path d="M111.213 27.8248C111.213 20.1341 125.989 15.8999 118.558 8.46842C116.743 6.65376 113.287 3.37008 109.657 0H89.3504L117.521 55.4768H130.396L132.125 52.0203C117.694 38.5399 111.213 34.6514 111.213 27.8248Z" fill="white"/>
</g>
<defs>
<clipPath id="clip0">
<rect width="290" height="128.409" fill="white"/>
</clipPath>
</defs>
</svg>
