<svg width="233" height="112" viewBox="0 0 233 112" fill="none" xmlns="http://www.w3.org/2000/svg">
<path d="M7.40025 79.391C7.25655 79.391 7.11286 79.391 6.82547 79.391C6.53808 79.391 6.32254 79.391 6.03515 79.391V84.8514C6.03515 85.5699 6.03515 86.1446 6.03515 86.6476C6.03515 87.1505 5.9633 87.5097 5.9633 87.869L9.41196 87.6534V89.3059H0.143692V88.0845C0.862162 88.0845 1.36509 87.9408 1.72433 87.7253C2.08356 87.5097 2.2991 87.1505 2.4428 86.7913C2.58649 86.3602 2.65834 85.9291 2.65834 85.3543C2.65834 84.7795 2.65834 84.2048 2.65834 83.5581V67.3207C2.65834 66.8178 2.65834 66.3149 2.65834 65.8838C2.65834 65.4527 2.73019 65.0216 2.73019 64.5905L0 64.7342V63.0817C1.29325 63.0817 2.65834 63.0099 4.09528 63.0099C5.46037 63.0099 6.89732 63.0099 8.4061 63.0099C12.0703 63.0099 14.8005 63.6565 16.7404 64.8779C18.7521 66.243 19.7579 68.1829 19.7579 70.7694C19.7579 71.2723 19.6861 71.8471 19.6142 72.4937C19.4705 73.1403 19.255 73.787 18.8958 74.4336C18.5365 75.0802 18.0336 75.7268 17.4588 76.3734C16.8122 77.0201 16.0937 77.523 15.1597 78.0259C14.2257 78.457 13.0762 78.8881 11.7829 79.1036C10.6334 79.2473 9.12457 79.391 7.40025 79.391ZM6.03515 77.8104C6.46623 77.8822 6.89732 77.8822 7.25655 77.9541C7.61579 77.9541 8.04687 77.9541 8.47795 77.9541C9.55566 77.9541 10.5615 77.8104 11.4955 77.4511C12.4295 77.1638 13.2917 76.6608 14.0102 76.0861C14.7286 75.5113 15.3034 74.721 15.6627 73.8588C16.0937 72.9966 16.3093 71.9908 16.3093 70.9131C16.3093 69.6917 16.0937 68.6858 15.7345 67.8955C15.3753 67.0333 14.8005 66.3867 14.1539 65.8838C13.4354 65.3808 12.6451 65.0216 11.7111 64.7342C10.7771 64.5187 9.69935 64.375 8.5498 64.375C7.90317 64.375 7.40025 64.4468 7.04101 64.6624C6.68178 64.8779 6.46623 65.1653 6.32254 65.5964C6.17885 65.9556 6.107 66.4586 6.107 67.0333C6.107 67.6081 6.107 68.1829 6.107 68.8295V77.8104H6.03515Z" fill="white"/>
<path d="M37.0731 78.1696L23.8532 78.3851C23.8532 79.8221 23.9251 81.1153 24.2125 82.3367C24.428 83.4863 24.7873 84.4921 25.2902 85.3543C25.7931 86.2165 26.4397 86.8631 27.2301 87.2942C28.0204 87.7253 28.9544 87.9408 30.1039 87.9408C30.6787 87.9408 31.3253 87.869 31.9001 87.7253C32.5467 87.5816 33.1215 87.366 33.6963 87.0786C34.2711 86.7912 34.774 86.5039 35.2769 86.0728C35.7799 85.7135 36.1391 85.2825 36.4983 84.8514L37.4323 85.5699C36.9294 86.3602 36.3546 87.0068 35.6362 87.5816C34.9895 88.1563 34.2711 88.5874 33.5526 88.9467C32.8341 89.3059 32.1157 89.5214 31.3253 89.6651C30.6069 89.8088 29.8884 89.8807 29.2418 89.8807C27.9485 89.8807 26.7271 89.6651 25.6494 89.1622C24.4999 88.7311 23.5659 88.0127 22.7037 87.1505C21.9134 86.2883 21.2667 85.2106 20.7638 83.9892C20.2609 82.7678 20.0453 81.4027 20.0453 79.8221C20.0453 78.5288 20.2609 77.2356 20.692 76.0142C21.1231 74.7928 21.7697 73.7151 22.6318 72.7811C23.494 71.8471 24.428 71.1286 25.6494 70.5538C26.799 69.979 28.0922 69.6917 29.5292 69.6917C30.535 69.6917 31.5409 69.8353 32.4749 70.1946C33.4089 70.5538 34.1992 71.0567 34.9177 71.7034C35.6362 72.4218 36.1391 73.284 36.5702 74.2899C36.9294 75.5831 37.0731 76.8045 37.0731 78.1696ZM29.5292 71.3441C28.0922 71.3441 26.8708 71.7752 25.865 72.6374C24.9309 73.4995 24.2843 74.8646 23.9969 76.8045H33.5526C33.5526 76.1579 33.4807 75.5113 33.3371 74.8646C33.1934 74.218 32.9778 73.6432 32.6186 73.1403C32.2593 72.6374 31.9001 72.2063 31.3253 71.8471C30.8943 71.4878 30.2476 71.3441 29.5292 71.3441Z" fill="white"/>
<path d="M49.8618 71.9189C49.3589 71.9189 48.9278 71.9907 48.4249 72.2063C47.922 72.4218 47.419 72.7092 46.9879 73.0684C46.485 73.4277 46.0539 73.8588 45.6229 74.3617C45.1918 74.8646 44.8325 75.4394 44.4733 76.086L44.5451 85.3543C44.5451 85.8572 44.5451 86.2883 44.5451 86.7194C44.5451 87.0786 44.4733 87.5097 44.4015 87.9408L46.7724 87.7971V89.3059H39.0129V88.1563C39.5877 88.1563 40.0188 88.0126 40.3062 87.7971C40.5936 87.5815 40.8091 87.2223 40.9528 86.8631C41.0965 86.432 41.1683 86.0009 41.1683 85.4261C41.1683 84.8514 41.1683 84.2766 41.1683 83.5581V74.9365C41.1683 74.5772 41.1683 74.1461 41.1683 73.7869C41.1683 73.3558 41.2402 72.9966 41.312 72.5655L38.6537 72.7092V71.2004H39.8032C40.3062 71.2004 40.8091 71.2004 41.1683 71.1286C41.5276 71.0567 41.815 70.9849 42.0305 70.913C42.246 70.8412 42.4616 70.6975 42.6053 70.6256C42.749 70.4819 42.8927 70.4101 43.0364 70.2664H44.1141C44.1859 70.6256 44.1859 71.1286 44.1859 71.7033C44.1859 72.2781 44.2578 73.0684 44.2578 73.9306C44.5451 73.4995 44.9044 72.9966 45.3355 72.4937C45.7665 71.9907 46.2695 71.6315 46.8443 71.2004C47.419 70.8412 47.9938 70.5538 48.6404 70.2664C49.2871 70.0509 49.9337 69.9072 50.5803 69.9072C50.9395 69.9072 51.2269 69.979 51.5862 70.0509C51.9454 70.1227 52.1609 70.2664 52.4483 70.4819C52.6639 70.6975 52.8794 70.913 53.0231 71.2004C53.1668 71.4878 53.2386 71.847 53.2386 72.2781C53.2386 72.4218 53.2386 72.6374 53.1668 72.8529C53.0949 73.0684 53.0231 73.284 52.8076 73.4277C52.6639 73.6432 52.4483 73.7869 52.2328 73.8588C52.0172 74.0024 51.7299 74.0743 51.3706 74.0743C51.0832 74.0743 50.8677 74.0024 50.5803 73.8588C50.3648 73.7151 50.1492 73.5714 50.0055 73.3558C49.8618 73.1403 49.7181 72.9247 49.6463 72.7092C49.8618 72.4218 49.79 72.2063 49.8618 71.9189Z" fill="white"/>
<path d="M66.243 62.6507C66.0274 62.4351 65.8119 62.2196 65.5245 62.1477C65.2371 62.0759 64.9497 62.004 64.6623 62.004C64.0875 62.004 63.5846 62.1477 63.2254 62.4351C62.8661 62.7225 62.5788 63.0099 62.2914 63.441C62.0758 63.8721 61.9321 64.375 61.7884 64.8779C61.7166 65.3808 61.6447 65.9556 61.6447 66.4585V70.4101H66.7459V71.8471L61.6447 71.9189L61.7166 85.2106C61.7166 85.7136 61.7166 86.1446 61.7166 86.5757C61.7166 86.935 61.6448 87.366 61.5729 87.7971L63.9439 87.6534V89.1622H56.2562V88.0127C56.831 88.0127 57.2621 87.869 57.5495 87.6534C57.8369 87.4379 58.0524 87.0786 58.1961 86.7194C58.3398 86.2883 58.4116 85.8572 58.4116 85.2825C58.4116 84.7077 58.4116 84.1329 58.4116 83.4145L58.3398 71.9189L55.2504 71.9908V70.2664H58.3398V69.4761C58.3398 68.111 58.4835 66.8178 58.699 65.7401C58.9146 64.6624 59.3456 63.6565 59.8486 62.938C60.3515 62.1477 61.07 61.573 61.9321 61.1419C62.7943 60.7108 63.872 60.4952 65.0934 60.4952C65.5245 60.4952 65.9556 60.5671 66.3867 60.6389C66.8896 60.7108 67.3207 60.9263 67.6799 61.1419C68.111 61.3574 68.3984 61.6448 68.6858 62.004C68.9732 62.3633 69.1168 62.7944 69.1168 63.2973C69.1168 63.8002 68.9732 64.2313 68.6858 64.5187C68.3984 64.8061 68.0391 65.0216 67.5362 65.0216C67.2488 65.0216 66.9614 64.9498 66.7459 64.8779C66.5304 64.8061 66.3867 64.6624 66.243 64.5187C66.0993 64.375 66.0274 64.1594 65.9556 64.0158C65.8837 63.8002 65.8837 63.6565 65.8837 63.5128C65.8837 63.3691 65.8837 63.2254 65.9556 63.0817C66.0993 63.0099 66.1711 62.8662 66.243 62.6507Z" fill="white"/>
<path d="M84.9232 78.1696L71.7033 78.3851C71.7033 79.8221 71.7752 81.1153 72.0626 82.3367C72.2781 83.4863 72.6374 84.4921 73.1403 85.3543C73.6432 86.2165 74.2898 86.8631 75.0802 87.2942C75.8705 87.7253 76.8045 87.9408 77.954 87.9408C78.5288 87.9408 79.1754 87.869 79.7502 87.7253C80.3968 87.5816 80.9716 87.366 81.5464 87.0786C82.1212 86.7912 82.6241 86.5039 83.127 86.0728C83.63 85.7135 83.9892 85.2825 84.3484 84.8514L85.2824 85.5699C84.7795 86.3602 84.2047 87.0068 83.4863 87.5816C82.8396 88.1563 82.1212 88.5874 81.4027 88.9467C80.6842 89.3059 79.9658 89.5214 79.1754 89.6651C78.457 89.8088 77.7385 89.8807 77.0919 89.8807C75.7986 89.8807 74.5772 89.6651 73.4277 89.1622C72.2781 88.7311 71.3441 88.0127 70.4819 87.1505C69.6916 86.2883 69.045 85.2106 68.5421 83.9892C68.0391 82.7678 67.8236 81.4027 67.8236 79.8221C67.8236 78.5288 68.0391 77.2356 68.4702 76.0142C68.9013 74.7928 69.5479 73.7151 70.4101 72.7811C71.2723 71.8471 72.2063 71.1286 73.4277 70.5538C74.5772 69.979 75.8705 69.6917 77.3074 69.6917C78.3133 69.6917 79.3191 69.8353 80.2532 70.1946C81.1872 70.5538 81.9775 71.0567 82.6959 71.7034C83.4144 72.4218 83.9173 73.284 84.3484 74.2899C84.7077 75.5831 84.9232 76.8045 84.9232 78.1696ZM77.3074 71.3441C75.8705 71.3441 74.6491 71.7752 73.6432 72.6374C72.7092 73.4995 72.0626 74.8646 71.7752 76.8045H81.3309C81.3309 76.1579 81.259 75.5113 81.1153 74.8646C80.9716 74.218 80.7561 73.6432 80.3968 73.1403C80.0376 72.6374 79.6784 72.2063 79.1036 71.8471C78.6725 71.4878 78.0259 71.3441 77.3074 71.3441Z" fill="white"/>
<path d="M100.442 73.3559C100.298 72.9248 100.011 72.5655 99.7237 72.2781C99.3644 71.9908 99.0052 71.7752 98.646 71.6315C98.2867 71.4878 97.8557 71.416 97.4964 71.3441C97.1372 71.2723 96.778 71.2723 96.5624 71.2723C95.7003 71.2723 94.9099 71.416 94.1915 71.7752C93.473 72.1345 92.8264 72.6374 92.2516 73.284C91.6768 73.9306 91.3176 74.7928 90.9583 75.7986C90.671 76.8045 90.4554 77.9541 90.4554 79.2473C90.4554 80.4687 90.5991 81.6183 90.9583 82.696C91.2457 83.7737 91.6768 84.6358 92.2516 85.4262C92.8264 86.2165 93.473 86.7913 94.2633 87.2223C95.0536 87.6534 95.9158 87.869 96.9217 87.869C97.4964 87.869 98.0712 87.7971 98.646 87.6534C99.2208 87.5097 99.7955 87.2942 100.298 86.9349C100.801 86.6476 101.304 86.2883 101.735 85.9291C102.166 85.5699 102.526 85.1388 102.813 84.6358L103.819 85.3543C103.316 86.1446 102.741 86.7913 102.095 87.366C101.448 87.9408 100.801 88.3719 100.083 88.7311C99.3644 89.0904 98.646 89.3777 97.9275 89.5214C97.209 89.6651 96.5624 89.8088 95.9158 89.8088C94.6225 89.8088 93.473 89.5933 92.3234 89.1622C91.1739 88.7311 90.2399 88.0845 89.3777 87.2942C88.5155 86.432 87.8689 85.4262 87.366 84.2766C86.8631 83.0552 86.6475 81.6901 86.6475 80.1813C86.6475 79.3192 86.7194 78.457 86.9349 77.5948C87.1504 76.7327 87.4378 75.9423 87.8689 75.152C88.3 74.3617 88.7311 73.6432 89.3059 72.9966C89.8806 72.35 90.5273 71.7752 91.2457 71.2723C91.9642 70.7694 92.7545 70.4101 93.6167 70.1227C94.4788 69.8353 95.4129 69.6917 96.3469 69.6917C97.3527 69.6917 98.3586 69.8353 99.2208 70.0509C100.083 70.3383 100.801 70.6257 101.448 71.0568C102.095 71.4878 102.526 71.9908 102.885 72.5655C103.244 73.1403 103.388 73.7151 103.388 74.2899C103.388 74.8646 103.244 75.2957 102.957 75.655C102.669 76.0142 102.238 76.2297 101.664 76.2297C101.304 76.2297 101.089 76.1579 100.801 76.086C100.586 75.9424 100.37 75.7987 100.298 75.655C100.155 75.5113 100.083 75.2957 100.011 75.0802C99.9392 74.8646 99.9392 74.7209 99.9392 74.5054C99.9392 74.2899 100.011 74.0025 100.083 73.7151C100.011 73.7869 100.227 73.5714 100.442 73.3559Z" fill="white"/>
<path d="M104.969 70.482C105.615 70.482 106.262 70.2664 106.765 69.9072C107.34 69.548 107.771 69.1169 108.202 68.6139C108.633 68.111 108.992 67.5362 109.208 66.8896C109.495 66.243 109.71 65.6682 109.854 65.1653H111.147C111.147 66.1711 111.147 67.1052 111.147 67.9673C111.147 68.8295 111.147 69.6916 111.147 70.4101H117.47V71.8471L111.147 71.9189C111.147 73.5714 111.147 74.9365 111.147 76.086C111.147 77.2356 111.147 78.1696 111.147 78.9599C111.147 79.7502 111.147 80.325 111.147 80.7561C111.147 81.1872 111.147 81.5464 111.147 81.762C111.147 81.9775 111.147 82.1212 111.147 82.193C111.147 82.2649 111.147 82.2649 111.147 82.3367C111.147 83.1989 111.219 83.9174 111.291 84.6358C111.363 85.2825 111.507 85.8572 111.794 86.2883C112.01 86.7194 112.297 87.0786 112.656 87.2942C113.015 87.5097 113.447 87.6534 114.021 87.6534C114.668 87.6534 115.315 87.4379 115.961 87.0786C116.608 86.7194 117.183 86.1446 117.685 85.4262L118.691 86.2883C118.117 87.1505 117.614 87.7971 117.039 88.2282C116.464 88.7311 115.961 89.0904 115.458 89.3059C114.955 89.5214 114.524 89.6651 114.093 89.737C113.662 89.8088 113.303 89.8088 113.015 89.8088C112.656 89.8088 112.225 89.8088 111.866 89.737C111.435 89.6651 111.076 89.5214 110.716 89.3777C110.357 89.2341 109.998 88.9467 109.639 88.6593C109.279 88.3 108.992 87.9408 108.776 87.366C108.489 86.8631 108.345 86.2165 108.202 85.498C108.058 84.7795 107.986 83.9174 107.986 82.9115L107.842 72.0626H104.969V70.482Z" fill="white"/>
<path d="M138.737 25.7212C137.874 25.7212 137.228 25.0746 137.228 24.2125C137.228 23.3503 137.874 22.7037 138.737 22.7037C139.599 22.7037 140.245 23.4221 140.245 24.2125C140.245 25.0028 139.599 25.7212 138.737 25.7212Z" fill="white"/>
<path d="M94.4789 25.7212C93.6167 25.7212 92.9701 25.0746 92.9701 24.2125C92.9701 23.3503 93.6167 22.7037 94.4789 22.7037C95.341 22.7037 95.9877 23.4221 95.9877 24.2125C95.9877 25.0028 95.2692 25.7212 94.4789 25.7212Z" fill="white"/>
<path d="M116.608 22.9192C115.746 22.9192 115.099 22.2726 115.099 21.4104C115.099 20.5482 115.746 19.9016 116.608 19.9016C117.47 19.9016 118.117 20.6201 118.117 21.4104C118.117 22.2726 117.47 22.9192 116.608 22.9192Z" fill="white"/>
<path d="M170.134 16.7404C169.775 16.2374 164.961 17.387 163.524 17.1714C162.302 16.7404 161.656 15.3753 160.578 15.3753C159.141 15.3034 158.135 16.2374 158.135 17.6025C158.135 17.7462 158.135 17.9618 158.207 18.1055C157.273 20.6201 153.106 22.7037 150.448 22.2726C146.496 21.6978 145.706 18.5365 144.987 15.95C144.628 14.7286 146.568 15.016 146.855 13.2917C147.071 11.8548 146.281 10.6334 144.341 10.1304C145.347 9.84305 145.993 9.05273 145.993 8.11872C145.993 6.96917 145.778 5.38853 144.125 5.10115C142.616 4.81376 141.036 6.96917 141.036 8.11872C141.036 8.83719 141.467 9.48381 142.113 9.84305C139.24 9.9149 137.084 10.7771 137.3 12.6451C137.372 13.2917 137.874 13.8665 137.659 14.3694C137.443 14.8723 132.701 19.1113 129.54 19.1113C126.163 19.1113 121.35 14.8005 120.99 13.2199C120.919 13.2199 123.074 11.9985 123.29 10.7052C123.577 8.33426 121.493 6.53809 118.979 5.81962C119.266 5.38853 119.41 4.8856 119.41 4.38267C119.41 2.94573 118.188 0 116.823 0C116.751 0 116.751 0 116.68 0C116.608 0 116.608 0 116.536 0C115.171 0 113.949 2.94573 113.949 4.38267C113.949 4.8856 114.093 5.38853 114.38 5.81962C111.866 6.53809 109.782 8.33426 110.07 10.7052C110.213 11.9985 112.441 13.2199 112.369 13.2199C112.01 14.8005 107.196 19.1113 103.819 19.1113C100.658 19.1113 95.9158 14.8723 95.7003 14.3694C95.4847 13.8665 95.9876 13.3636 96.0595 12.6451C96.275 10.7771 94.1196 9.9149 91.2457 9.84305C91.8924 9.48381 92.3234 8.83719 92.3234 8.11872C92.3234 6.96917 90.7428 4.81376 89.234 5.10115C87.5815 5.38853 87.366 6.96917 87.366 8.11872C87.366 9.05273 88.0845 9.84305 89.0185 10.1304C87.0786 10.6334 86.2883 11.8548 86.5038 13.2917C86.7912 15.0879 88.7311 14.7286 88.3719 15.95C87.6534 18.5365 86.7912 21.6978 82.9115 22.2726C80.2531 22.7037 76.086 20.5483 75.152 18.1055C75.152 17.9618 75.2239 17.8181 75.2239 17.6025C75.2239 16.2374 74.218 15.3034 72.781 15.3753C71.7033 15.4471 71.0567 16.7404 69.8353 17.1714C68.3984 17.387 63.5846 16.3093 63.2254 16.7404C63.2254 16.7404 62.8661 17.0996 62.8661 17.6025C62.8661 17.9618 80.3968 32.4749 81.7619 34.271C83.0552 35.9954 84.7077 46.7724 85.4261 48.9997C85.498 49.2871 85.5698 49.5026 85.7135 49.7182C87.7252 52.2328 103.244 53.8853 116.536 53.8853C116.608 53.8853 116.68 53.8853 116.751 53.8853C116.823 53.8853 116.895 53.8853 116.967 53.8853C130.259 53.8853 145.778 52.2328 147.789 49.7182C148.005 49.5026 148.077 49.2152 148.077 48.9997C148.795 46.7724 150.448 35.9954 151.741 34.271C153.106 32.4749 170.637 17.9618 170.637 17.6025C170.421 17.0996 170.134 16.7404 170.134 16.7404ZM116.823 52.0173C116.751 52.0173 116.68 52.0173 116.608 52.0173C116.536 52.0173 116.464 52.0173 116.392 52.0173C101.232 52.0173 89.8088 50.0774 87.4379 48.7842C88.9466 47.3472 100.801 44.3296 116.392 44.3296C116.464 44.3296 116.536 44.3296 116.608 44.3296C116.68 44.3296 116.751 44.3296 116.823 44.3296C132.414 44.3296 144.269 47.3472 145.778 48.7842C143.335 50.0774 131.983 52.0173 116.823 52.0173ZM149.226 35.708C148.795 37.1449 148.149 45.0481 147.358 46.8443C145.49 45.3355 132.127 41.9587 116.608 41.9587C116.608 41.9587 116.608 41.9587 116.536 41.9587C116.536 41.9587 116.536 41.9587 116.464 41.9587C100.873 41.9587 87.5815 45.3355 85.7135 46.8443C84.9232 45.0481 84.3484 37.0731 83.8455 35.708C83.63 35.0614 84.061 34.4866 84.061 34.4866C86.2164 31.5409 99.7955 28.0922 116.32 28.0922C116.392 28.0922 116.68 28.0922 116.751 28.0922C133.204 28.0922 146.855 31.5409 149.011 34.4866C149.083 34.4866 149.442 35.1332 149.226 35.708ZM151.166 31.9001C151.166 31.9001 147.789 30.4632 141.754 28.8825C134.929 27.0863 125.301 26.296 116.68 26.296C108.058 26.296 98.4304 27.3737 91.605 28.8825C85.9291 30.1039 82.193 31.9001 82.193 31.9001L75.3675 24.7154C75.3675 24.7154 82.7678 25.7212 86.5038 24.2125C90.2399 22.7037 91.9642 15.8782 91.9642 15.8782C91.9642 15.8782 100.227 22.2007 105.04 21.9134C109.926 21.626 116.68 12.3577 116.68 12.3577C116.68 12.3577 123.505 21.626 128.319 21.9134C133.133 22.2007 141.395 15.8782 141.395 15.8782C141.395 15.8782 143.191 22.6318 146.855 24.2125C150.591 25.7212 157.992 24.7154 157.992 24.7154L151.166 31.9001Z" fill="white"/>
<path d="M116.608 30.1758C114.309 30.1758 112.441 32.3312 112.441 34.9177C112.441 37.576 114.309 39.6596 116.608 39.6596C118.907 39.6596 120.775 37.5042 120.775 34.9177C120.703 32.3312 118.907 30.1758 116.608 30.1758Z" fill="white"/>
<path d="M135.001 41.7431C136.869 42.2461 138.952 40.881 139.599 38.6537C140.245 36.4264 139.24 34.1273 137.3 33.6244C135.432 33.1215 133.348 34.4866 132.701 36.7138C132.127 39.0129 133.133 41.2402 135.001 41.7431Z" fill="white"/>
<path d="M98.143 41.7431C96.275 42.2461 94.1915 40.881 93.5448 38.6537C92.8982 36.4264 93.9041 34.1273 95.8439 33.6244C97.712 33.1215 99.7955 34.4866 100.442 36.7138C101.089 39.0129 100.083 41.2402 98.143 41.7431Z" fill="white"/>
<path d="M154.471 87.9408H153.465C153.034 87.9408 152.531 88.0126 151.813 88.1563C151.094 88.3 150.304 88.5874 149.442 88.8748C149.083 89.0185 148.652 89.1622 148.149 89.3059C147.718 89.4496 147.215 89.5214 146.712 89.5933C146.209 89.6651 145.778 89.737 145.275 89.8088C144.772 89.8807 144.341 89.8807 143.91 89.8807C142.042 89.8807 140.317 89.5933 138.737 88.9466C137.156 88.3719 135.791 87.4378 134.713 86.3601C133.564 85.2106 132.701 83.8455 132.055 82.193C131.408 80.5405 131.121 78.7444 131.121 76.6608C131.121 75.5112 131.265 74.2898 131.48 73.1403C131.696 71.9907 132.055 70.8412 132.558 69.7635C133.061 68.6858 133.635 67.7518 134.354 66.8177C135.072 65.8837 135.935 65.0934 136.869 64.4468C137.874 63.8002 138.952 63.2254 140.174 62.8662C141.395 62.5069 142.76 62.2914 144.197 62.2914C144.844 62.2914 145.562 62.3632 146.281 62.4351C146.999 62.5069 147.646 62.6506 148.364 62.8662C149.011 63.0099 149.657 63.2254 150.304 63.5128C150.951 63.8002 151.525 64.0876 152.028 64.375L151.885 62.5788H153.968V71.2004H152.603C152.531 70.0509 152.244 68.9732 151.813 68.0391C151.382 67.1051 150.807 66.3148 150.088 65.74C149.37 65.0934 148.508 64.6623 147.574 64.3031C146.64 63.9439 145.634 63.8002 144.484 63.8002C143.119 63.8002 141.898 64.0876 140.748 64.6623C139.599 65.2371 138.521 66.0993 137.659 67.177C136.797 68.2547 136.078 69.4761 135.575 70.9849C135.072 72.4218 134.785 74.0743 134.785 75.7986C134.785 77.5948 135.001 79.2473 135.504 80.6842C136.006 82.193 136.653 83.4863 137.587 84.564C138.449 85.6417 139.527 86.5038 140.748 87.0786C141.97 87.7252 143.335 88.0126 144.844 88.0126C145.347 88.0126 145.849 87.9408 146.424 87.8689C146.999 87.7971 147.502 87.6534 148.077 87.5097C148.652 87.366 149.154 87.1505 149.729 86.9349C150.304 86.7194 150.807 86.432 151.31 86.0728V77.8103L148.652 77.954V76.3016H157.129V77.523C156.698 77.523 156.267 77.5948 155.98 77.8103C155.693 77.954 155.405 78.2414 155.19 78.457C154.974 78.7444 154.83 79.0317 154.759 79.391C154.687 79.7502 154.615 80.0376 154.543 80.3968C154.471 80.7561 154.471 81.0435 154.471 81.3309C154.471 81.6182 154.471 81.8338 154.471 82.0493V87.9408Z" fill="white"/>
<path d="M169.703 71.9908C169.2 71.9908 168.769 72.0626 168.266 72.2782C167.763 72.4937 167.26 72.7811 166.829 73.1403C166.326 73.4996 165.895 73.9307 165.464 74.4336C165.033 74.9365 164.673 75.5113 164.314 76.1579L164.386 85.4262C164.386 85.9291 164.386 86.3602 164.386 86.7913C164.386 87.1505 164.314 87.5816 164.242 88.0127L166.613 87.869V89.3778H158.926V88.2282C159.5 88.2282 159.931 88.0845 160.219 87.869C160.506 87.6534 160.722 87.2942 160.865 86.935C161.009 86.5039 161.081 86.0728 161.081 85.498C161.081 84.9232 161.081 84.3485 161.081 83.63V75.0084C161.081 74.6491 161.081 74.218 161.081 73.8588C161.081 73.4277 161.153 73.0685 161.225 72.6374L158.566 72.7811V71.2723H159.716C160.219 71.2723 160.722 71.2723 161.081 71.2005C161.44 71.1286 161.728 71.0568 161.943 70.9849C162.159 70.9131 162.374 70.7694 162.518 70.6975C162.662 70.5538 162.805 70.482 162.949 70.3383H164.027C164.099 70.6975 164.099 71.2005 164.099 71.7752C164.099 72.35 164.17 73.1403 164.17 74.0025C164.458 73.5714 164.817 73.0685 165.248 72.5656C165.679 72.0626 166.182 71.7034 166.757 71.2723C167.332 70.9131 167.907 70.6257 168.553 70.3383C169.2 70.1228 169.846 69.9791 170.493 69.9791C170.852 69.9791 171.14 70.0509 171.499 70.1228C171.858 70.1946 172.074 70.3383 172.361 70.5538C172.577 70.7694 172.792 70.9849 172.936 71.2723C173.08 71.5597 173.151 71.9189 173.151 72.35C173.151 72.4937 173.151 72.7092 173.079 72.9248C173.008 73.1403 172.936 73.3559 172.72 73.4996C172.577 73.7151 172.361 73.8588 172.145 73.9307C171.93 74.0743 171.643 74.1462 171.283 74.1462C170.996 74.1462 170.78 74.0743 170.493 73.9307C170.277 73.787 170.062 73.6433 169.918 73.4277C169.775 73.2122 169.631 72.9966 169.559 72.7811C169.703 72.4937 169.703 72.2782 169.703 71.9908Z" fill="white"/>
<path d="M182.204 69.9072C183.497 69.9072 184.791 70.1227 185.94 70.6256C187.09 71.1286 188.096 71.7752 188.958 72.6374C189.82 73.4995 190.467 74.5054 190.969 75.6549C191.472 76.8045 191.688 78.0977 191.688 79.4628C191.688 80.8998 191.472 82.2649 190.969 83.5581C190.467 84.8514 189.82 85.9291 188.958 86.8631C188.096 87.7971 187.09 88.5155 185.94 89.0903C184.791 89.6651 183.569 89.8806 182.204 89.8806C180.911 89.8806 179.618 89.6651 178.468 89.1622C177.318 88.6592 176.313 88.0126 175.45 87.2223C174.588 86.3601 173.942 85.3543 173.439 84.2047C172.936 83.0552 172.72 81.7619 172.72 80.325C172.72 78.8162 172.936 77.4511 173.439 76.1579C173.942 74.8646 174.588 73.7869 175.45 72.8529C176.313 71.9189 177.318 71.2004 178.468 70.6256C179.618 70.1946 180.839 69.9072 182.204 69.9072ZM182.204 71.3441C181.198 71.3441 180.336 71.5596 179.689 71.9907C178.971 72.4218 178.396 72.9966 177.965 73.7869C177.534 74.5054 177.175 75.3675 176.959 76.3015C176.744 77.2356 176.672 78.2414 176.672 79.2473C176.672 80.3968 176.816 81.5464 177.031 82.6241C177.247 83.7018 177.606 84.7077 178.109 85.5698C178.612 86.432 179.187 87.0786 179.977 87.6534C180.695 88.1563 181.557 88.4437 182.563 88.4437C183.569 88.4437 184.36 88.2282 185.078 87.7971C185.725 87.366 186.299 86.7912 186.73 86.0009C187.162 85.2824 187.449 84.4203 187.664 83.4863C187.88 82.5522 187.952 81.5464 187.952 80.6124C187.952 79.4628 187.88 78.3851 187.664 77.2356C187.449 76.1579 187.09 75.152 186.659 74.2898C186.228 73.4277 185.653 72.7092 184.934 72.2063C184 71.6315 183.21 71.3441 182.204 71.3441Z" fill="white"/>
<path d="M207.422 75.4394C207.422 74.7928 207.422 74.2899 207.494 73.8588C207.494 73.4277 207.566 72.9966 207.638 72.5655L204.908 72.7092V71.2004H206.057C206.632 71.2004 207.063 71.2004 207.422 71.1286C207.782 71.0567 208.141 70.9849 208.428 70.913C208.716 70.8412 208.931 70.6975 209.075 70.6257C209.219 70.482 209.434 70.4101 209.578 70.2664H210.656L210.584 84.4921C210.584 84.7077 210.584 84.9232 210.584 85.2106C210.584 85.498 210.584 85.8572 210.584 86.1446C210.584 86.5039 210.584 86.7912 210.512 87.1505C210.512 87.5097 210.44 87.7971 210.44 88.0126L213.17 87.8689V89.4496H207.782C207.71 89.0185 207.638 88.6593 207.638 88.3C207.566 87.9408 207.566 87.5816 207.566 87.2223C207.207 87.5816 206.704 88.0126 206.273 88.3C205.77 88.6593 205.267 88.9466 204.764 89.234C204.261 89.5214 203.686 89.6651 203.112 89.8807C202.537 90.0244 201.962 90.0962 201.459 90.0962C200.453 90.0962 199.519 89.9525 198.729 89.6651C197.939 89.3777 197.292 88.9467 196.789 88.3C196.286 87.6534 195.855 86.7912 195.64 85.7854C195.352 84.7077 195.28 83.4144 195.28 81.9056V75.2239C195.28 74.8646 195.28 74.4335 195.28 74.0025C195.28 73.5714 195.352 73.2121 195.424 72.7811L192.837 72.9248V71.416H193.987C194.49 71.416 194.993 71.416 195.352 71.3441C195.711 71.2723 196.071 71.2004 196.358 71.1286C196.645 71.0567 196.861 70.913 197.005 70.8412C197.148 70.6975 197.364 70.6257 197.508 70.482H198.585V81.9775C198.585 83.0552 198.657 83.9892 198.801 84.8514C198.944 85.6417 199.16 86.2883 199.519 86.8631C199.878 87.366 200.238 87.7971 200.812 88.0126C201.315 88.2282 201.962 88.3719 202.681 88.3719C203.183 88.3719 203.615 88.3 204.117 88.1563C204.549 88.0126 204.98 87.7971 205.411 87.5097C205.842 87.2223 206.201 86.9349 206.56 86.5757C206.919 86.2165 207.207 85.8572 207.494 85.498V83.5581V75.4394H207.422Z" fill="white"/>
<path d="M215.757 75.0084C215.757 74.6491 215.757 74.218 215.757 73.7869C215.757 73.3559 215.829 72.9966 215.9 72.5656L213.242 72.7092V71.1286C214.032 71.1286 214.751 71.1286 215.254 71.0568C215.757 70.9849 216.188 70.9131 216.475 70.8412C216.763 70.7694 217.05 70.6257 217.194 70.5538C217.337 70.4101 217.553 70.3383 217.625 70.1946H218.702C218.702 70.4101 218.774 70.6975 218.774 71.0568C218.774 71.416 218.846 71.7752 218.846 72.2063C219.205 71.8471 219.636 71.5597 220.139 71.2723C220.57 70.9849 221.073 70.7694 221.576 70.5538C222.079 70.3383 222.582 70.1946 223.157 70.1228C223.66 69.9791 224.235 69.9791 224.738 69.9791C225.815 69.9791 226.893 70.1946 227.899 70.6257C228.905 71.0568 229.767 71.7034 230.557 72.4937C231.347 73.284 231.922 74.2899 232.353 75.4394C232.784 76.589 233 77.8822 233 79.391C233 80.4687 232.856 81.4746 232.641 82.4086C232.425 83.3426 232.066 84.2048 231.635 84.9951C231.204 85.7854 230.701 86.5039 230.126 87.1505C229.551 87.7971 228.905 88.3001 228.186 88.7311C227.468 89.1622 226.749 89.5215 225.887 89.737C225.097 89.9525 224.235 90.0962 223.444 90.0962C221.72 90.0962 220.211 89.6651 218.918 88.8748V95.1255C218.918 95.6285 218.918 96.0595 218.918 96.4906C218.918 96.8499 218.846 97.2809 218.774 97.712L221.145 97.5683V99.0771H213.458V97.9276C214.032 97.9276 214.463 97.7839 214.751 97.5683C215.038 97.3528 215.254 96.9935 215.397 96.6343C215.541 96.2032 215.613 95.7722 215.613 95.1974C215.613 94.6226 215.613 94.0478 215.685 93.3294L215.757 75.0084ZM223.444 71.7752C223.013 71.7752 222.582 71.8471 222.151 71.9189C221.72 72.0626 221.361 72.2063 220.93 72.35C220.57 72.5656 220.211 72.7811 219.852 72.9966C219.493 73.284 219.205 73.4996 218.99 73.7869C218.99 73.8588 218.99 74.0025 218.99 74.1462C218.99 74.2899 218.99 74.5054 218.99 74.7928C218.99 75.0802 218.99 75.5113 218.99 76.0861C218.99 76.6608 218.99 77.3793 218.99 78.3133C218.99 79.2473 218.99 80.3969 218.99 81.8338C218.99 83.1989 218.99 84.9232 218.99 86.935C219.636 87.366 220.283 87.7971 221.073 88.0127C221.792 88.3001 222.582 88.3719 223.444 88.3719C224.306 88.3719 225.169 88.1564 225.815 87.7253C226.534 87.2942 227.109 86.7194 227.611 85.9291C228.114 85.1388 228.474 84.2766 228.761 83.1989C229.048 82.1212 229.192 80.9717 229.192 79.7503C229.192 78.7444 229.12 77.7385 228.905 76.8045C228.689 75.8705 228.33 74.9365 227.899 74.218C227.468 73.4277 226.821 72.8529 226.103 72.4219C225.312 71.9908 224.45 71.7752 223.444 71.7752Z" fill="white"/>
<path d="M165.607 109.423C165.248 109.423 164.961 109.423 164.53 109.423C164.53 108.345 164.53 107.196 164.53 106.118C164.53 105.04 164.53 103.963 164.53 102.885C164.458 102.885 164.458 102.813 164.386 102.813C164.242 102.957 164.171 103.1 164.027 103.244C162.374 105.184 160.291 107.483 158.638 109.423H157.848C157.848 106.621 157.848 103.675 157.848 100.801C158.207 100.801 158.495 100.801 158.926 100.801C158.926 102.957 158.926 105.184 158.926 107.483C159.141 107.339 158.854 107.555 158.926 107.483C160.65 105.543 163.093 102.813 164.745 100.801H165.536C165.607 103.675 165.607 106.549 165.607 109.423Z" fill="white"/>
<path d="M83.3426 109.495C83.4144 109.567 82.0493 107.124 82.0493 107.124H76.8763C76.8763 107.124 75.8705 109.136 75.6549 109.495H74.4335C74.5772 109.207 77.6667 103.316 78.9599 100.801C79.2473 100.801 79.8939 100.801 79.8939 100.801C81.3309 103.532 83.0552 106.765 84.4921 109.495H83.3426ZM81.5464 106.118C80.8279 104.825 80.1813 103.603 79.4628 102.238C78.7444 103.603 78.0977 104.825 77.4511 106.118C78.888 106.118 80.1813 106.118 81.5464 106.118Z" fill="white"/>
<path d="M203.327 109.351C203.399 109.423 202.034 106.98 202.034 106.98H196.861C196.861 106.98 195.855 108.992 195.639 109.351H194.418C194.562 109.064 197.651 103.172 198.944 100.658C199.232 100.658 199.878 100.658 199.878 100.658C201.315 103.388 203.04 106.621 204.477 109.351H203.327ZM201.531 105.974C200.812 104.681 200.166 103.46 199.447 102.095C198.729 103.46 198.082 104.681 197.436 105.974C198.801 105.974 200.166 105.974 201.531 105.974Z" fill="white"/>
<path d="M43.8267 100.442C44.2578 100.586 44.6888 100.658 45.1199 100.801C45.9821 101.161 46.7006 101.735 47.2753 102.526C46.9879 102.741 46.7006 102.957 46.4132 103.172C44.6888 101.232 42.5334 100.945 40.9528 102.526C39.5159 103.963 39.6595 106.621 41.1683 107.914C42.8208 109.351 45.0481 108.848 46.6287 106.765C46.9161 106.98 47.2035 107.196 47.4909 107.411C46.6287 108.992 45.3355 109.782 43.5393 109.782C41.2402 109.782 39.444 108.489 39.0129 106.262C38.3663 103.388 40.0906 100.873 42.749 100.586C42.8208 100.586 42.8927 100.514 42.8927 100.514C43.1801 100.442 43.4674 100.442 43.8267 100.442Z" fill="white"/>
<path d="M97.2809 109.567C96.9935 109.567 96.7061 109.567 96.3469 109.567C96.3469 106.621 96.3469 103.675 96.3469 100.658C96.6343 100.658 96.9935 100.658 97.2809 100.658C97.2809 103.603 97.2809 106.549 97.2809 109.567Z" fill="white"/>
<path d="M35.708 104.537C36.7138 105.112 37.2167 106.046 37.073 107.196C36.9294 108.633 35.9235 109.495 34.4147 109.495C32.4748 109.567 30.6068 109.495 28.5951 109.495C28.5951 106.549 28.5951 103.603 28.5951 100.658C28.8106 100.658 28.9543 100.658 29.1699 100.658C30.8942 100.658 32.6185 100.658 34.3429 100.729C35.205 100.729 35.9953 101.089 36.2827 102.023C36.5701 102.885 36.4983 103.819 35.708 104.466C35.7798 104.466 35.708 104.466 35.708 104.537ZM29.7447 105.184C29.7447 106.262 29.7447 107.339 29.7447 108.489C31.3253 108.489 32.9059 108.489 34.4866 108.489C35.4206 108.489 35.9235 107.842 35.9235 106.908C35.9235 105.974 35.4206 105.256 34.4866 105.256C32.9778 105.184 31.3971 105.184 29.7447 105.184ZM29.7447 104.178C31.2534 104.178 32.6904 104.178 34.1992 104.178C34.9895 104.178 35.4924 103.675 35.4206 102.885C35.4206 102.095 34.9176 101.735 34.1273 101.664C33.0496 101.664 31.9719 101.664 30.966 101.664C30.6068 101.664 30.2476 101.664 29.8165 101.664C29.7446 102.526 29.7447 103.316 29.7447 104.178Z" fill="white"/>
<path d="M66.8896 100.73C68.8295 100.73 70.6975 100.658 72.5655 100.73C73.9306 100.801 74.7209 101.807 74.6491 103.172C74.5772 104.537 73.6432 105.543 72.35 105.615C71.0567 105.687 69.8353 105.615 68.5421 105.615C68.3984 105.615 68.1828 105.615 67.9673 105.615C67.9673 106.908 67.9673 108.202 67.9673 109.495C67.6081 109.495 67.2488 109.495 66.8896 109.495C66.8896 106.549 66.8896 103.675 66.8896 100.73ZM67.9673 101.735C67.9673 102.741 67.9673 103.675 67.9673 104.609C69.4042 104.609 70.8412 104.609 72.2063 104.609C73.0684 104.609 73.4995 104.034 73.4995 103.244C73.4995 102.454 73.0684 101.807 72.2781 101.807C70.8412 101.664 69.4042 101.735 67.9673 101.735Z" fill="white"/>
<path d="M87.1505 104.178C88.9466 104.178 90.5991 104.178 92.3953 104.178C92.3953 103.029 92.3953 101.879 92.3953 100.729C92.7545 100.729 93.1138 100.729 93.473 100.729C93.473 103.675 93.473 106.549 93.473 109.495C93.1138 109.495 92.7545 109.495 92.3953 109.495C92.3953 108.058 92.3953 106.693 92.3953 105.256C90.671 105.256 88.9466 105.256 87.1505 105.256C87.1505 106.693 87.1505 108.058 87.1505 109.495C86.7912 109.495 86.432 109.495 86.0728 109.495C86.0728 106.549 86.0728 103.675 86.0728 100.729C86.432 100.729 86.7194 100.729 87.1505 100.729C87.1505 101.879 87.1505 103.029 87.1505 104.178Z" fill="white"/>
<path d="M59.9923 109.495C59.5612 109.495 59.2738 109.495 58.9146 109.495C58.9146 106.549 58.9146 103.675 58.9146 100.658C61.1418 100.658 63.2972 100.658 65.5245 100.658C65.5245 100.945 65.5245 101.304 65.5245 101.664C63.6565 101.664 61.8603 101.664 59.9923 101.664C59.9923 104.322 59.9923 106.908 59.9923 109.495Z" fill="white"/>
<path d="M50.6521 109.495C50.2929 109.495 49.9336 109.495 49.5744 109.495C49.5744 106.549 49.5744 103.603 49.5744 100.658C49.9336 100.658 50.2929 100.658 50.6521 100.658C50.6521 103.603 50.6521 106.549 50.6521 109.495Z" fill="white"/>
<path d="M105.184 100.729C107.268 100.729 109.423 100.729 111.507 100.801C111.794 100.801 112.081 100.801 112.369 100.801C112.369 101.161 112.369 101.448 112.369 101.807C110.357 101.807 108.345 101.807 106.334 101.807C106.334 102.669 106.334 103.388 106.334 104.25C107.124 104.25 107.986 104.25 108.776 104.25C109.423 104.25 109.998 104.25 110.644 104.25C112.369 104.322 113.231 105.256 113.231 106.836C113.231 108.417 112.153 109.495 110.573 109.495C108.776 109.567 106.98 109.495 105.256 109.495C105.184 106.549 105.184 103.603 105.184 100.729ZM106.262 108.489C107.627 108.489 108.92 108.489 110.142 108.489C110.429 108.489 110.716 108.489 111.004 108.345C111.65 108.13 112.01 107.699 112.01 106.908C112.01 106.046 111.722 105.615 111.076 105.328C110.932 105.256 110.788 105.184 110.716 105.184C109.208 105.184 107.771 105.184 106.262 105.184C106.262 106.334 106.262 107.411 106.262 108.489Z" fill="white"/>
<path d="M137.372 109.495C137.372 106.549 137.372 103.675 137.372 100.873C139.455 100.873 141.467 100.801 143.479 100.873C144.197 100.873 144.772 101.376 144.987 102.095C145.275 102.957 145.203 103.819 144.341 104.537C145.203 105.112 145.706 105.902 145.706 106.98C145.634 108.345 144.772 109.351 143.263 109.423C141.323 109.567 139.383 109.495 137.372 109.495ZM138.449 105.256C138.449 106.405 138.449 107.411 138.449 108.489C140.102 108.489 141.682 108.489 143.263 108.489C143.407 108.489 143.622 108.417 143.766 108.345C144.413 108.058 144.7 107.339 144.556 106.549C144.413 105.831 143.91 105.256 143.263 105.256C141.682 105.184 140.102 105.256 138.449 105.256ZM138.449 101.807C138.449 102.669 138.449 103.388 138.449 104.178C139.958 104.178 141.467 104.25 142.976 104.178C143.694 104.178 144.053 103.603 143.981 102.885C143.91 102.238 143.55 101.807 142.832 101.807C141.395 101.735 139.958 101.807 138.449 101.807Z" fill="white"/>
<path d="M192.191 104.537C192.909 105.04 193.412 105.615 193.556 106.477C193.771 108.202 192.766 109.423 190.969 109.495C189.101 109.567 187.162 109.495 185.222 109.495C185.222 106.621 185.222 103.747 185.222 100.729C185.581 100.729 185.94 100.729 186.228 100.729C187.736 100.729 189.317 100.729 190.826 100.801C191.688 100.801 192.406 101.161 192.766 101.951C193.125 102.885 193.053 103.819 192.191 104.537ZM186.299 108.489C187.952 108.489 189.461 108.561 191.041 108.489C191.975 108.489 192.55 107.771 192.478 106.765C192.478 105.759 191.903 105.256 190.898 105.184C189.532 105.184 188.167 105.184 186.802 105.184C186.659 105.184 186.515 105.256 186.371 105.256C186.299 106.334 186.299 107.411 186.299 108.489ZM186.299 101.807C186.299 102.598 186.299 103.388 186.299 104.178C187.88 104.178 189.389 104.25 190.898 104.178C191.616 104.178 191.903 103.603 191.903 102.957C191.832 102.31 191.544 101.879 190.898 101.879C189.317 101.807 187.808 101.807 186.299 101.807Z" fill="white"/>
<path d="M123.361 111.435C123.002 111.435 122.787 111.435 122.427 111.435C122.427 110.501 122.427 108.489 122.427 108.489H123.505L126.81 100.729H127.672L131.121 108.489H132.27C132.27 108.489 132.27 110.429 132.27 111.435C131.983 111.435 131.696 111.435 131.336 111.435C131.336 110.86 131.336 110.213 131.336 109.567C128.606 109.567 126.02 109.567 123.29 109.567C123.361 110.141 123.361 110.716 123.361 111.435ZM127.313 102.238C126.379 104.394 125.589 106.405 124.726 108.489C126.523 108.489 128.247 108.489 130.115 108.489C129.181 106.405 128.247 104.394 127.313 102.238Z" fill="white"/>
<path d="M175.091 108.489C175.522 108.489 175.953 108.561 176.313 108.561C176.313 109.495 176.313 110.429 176.313 111.435C176.025 111.435 175.738 111.435 175.379 111.435C175.379 110.788 175.379 110.213 175.379 109.567C173.008 109.567 170.709 109.567 168.409 109.567C168.409 106.621 168.409 103.747 168.409 100.873C168.769 100.873 169.056 100.873 169.487 100.873C169.487 103.46 169.487 105.974 169.487 108.561C170.996 108.561 172.505 108.561 174.014 108.561C174.014 105.974 174.014 103.46 174.014 100.873C174.373 100.873 174.732 100.873 175.091 100.873C175.091 103.316 175.091 105.902 175.091 108.489Z" fill="white"/>
<path d="M148.077 100.801C148.436 100.801 148.723 100.801 149.154 100.801C149.154 101.951 149.154 103.029 149.154 104.178C150.879 104.178 152.603 104.178 154.327 104.178C154.327 103.029 154.327 101.951 154.327 100.801C154.687 100.801 155.046 100.801 155.333 100.801C155.333 103.675 155.333 106.549 155.333 109.495C154.974 109.495 154.687 109.495 154.327 109.495C154.327 108.13 154.327 106.693 154.327 105.328C152.603 105.328 150.879 105.328 149.154 105.328C149.154 106.693 149.154 108.058 149.154 109.495C148.795 109.495 148.436 109.495 148.077 109.495C148.077 106.549 148.077 103.675 148.077 100.801Z" fill="white"/>
<path d="M118.907 105.543C119.769 104.178 121.853 100.729 121.853 100.729H123.146C123.146 100.729 119.194 107.052 117.757 109.495H116.464C116.895 108.776 118.188 106.621 118.188 106.621C117.111 105.112 114.309 100.729 114.309 100.729H115.674C115.674 100.729 117.973 104.178 118.907 105.543Z" fill="white"/>
<path d="M179.833 101.807C178.54 101.807 177.39 101.807 176.169 101.807C176.169 101.448 176.169 101.161 176.169 100.801C178.971 100.801 181.701 100.801 184.503 100.801C184.503 101.089 184.503 101.376 184.503 101.735C183.354 101.735 182.132 101.735 180.839 101.735C180.839 104.322 180.839 106.908 180.839 109.423C180.48 109.423 180.121 109.423 179.761 109.423C179.833 106.908 179.833 104.394 179.833 101.807Z" fill="white"/>
<path d="M133.635 100.729C133.995 100.729 134.282 100.729 134.641 100.729C134.641 103.675 134.641 106.549 134.641 109.495C134.282 109.495 133.995 109.495 133.635 109.495C133.635 106.549 133.635 103.675 133.635 100.729Z" fill="white"/>
</svg>
